<svg xmlns="http://www.w3.org/2000/svg" width="300" height="300">
	<g transform="translate(0, -50)">
		<path fill="#F89A52" stroke-width="0.1%" stroke="#F89A52" d="M 150 200 l -48.81 -10.82 A 50 50 0 0 1 171.918557339453873 155.06029768504163 z"/>
		<path fill="#F9A453" stroke-width="0.1%" stroke="#F9A453" d="M 150 200 l -48.81 -10.82 A 50 50 0 0 0 150 250 z"/>
		<path fill="#F7B051" stroke-width="0.1%" stroke="#F7B051" d="M 150 200 L 171.918557339453873 155.06029768504163 A 50 50 0 0 1 188.85729807284855 231.46601955249187 z"/>
		<path fill="#F68A45" stroke-width="0.1%" stroke="#F68A45" d="M 150 200 L 150 250 A 50 50 0 0 0 188.85729807284855 231.46601955249187 z"/>
		<path fill="#EC853D" stroke-width="0.1%" stroke="#EC853D" d="M 188.85729807284855 231.46601955249187 A 50 50 0 0 1 150 250 L 150 292 A 92 92 0 0 0 221.4974284540413 257.89747597658504 z"/>
		<path fill="#F7B427" stroke-width="0.1%" stroke="#F7B427" d="M 221.4974284540413 257.89747597658504 A 92 92 0 0 0 190.33014550459512 117.31094774047664 L 198.6591972935876 100.23386086079246 A 111 111 0 0 1 236.26320172172376 269.85456340653195 z"/>
		<path fill="#F99E2E" stroke-width="0.1%" stroke="#F99E2E" d="M 190.33014550459512 117.31094774047664 A 92 92 0 0 0 60.18076734496613 180.08755551769454 L 41.631143209687394 175.9752028528706 A 111 111 0 0 1 198.6591972935876 100.23386086079246 z"/>
		<path fill="#F68933" stroke-width="0.1%" stroke="#F68933" d="M 60.18076734496613 180.08755551769454 A 92 92 0 0 0 150 292 L 150 311 A 111 111 0 0 1 41.631143209687394 175.9752028528706 z"/>
		<path fill="#F4A420" stroke-width="0.1%" stroke="#F4A420" d="M 236.26320172172376 269.85456340653195 A 111 111 0 0 0 198.6591972935876 100.23386086079246 L 207.42662022936915 82.25797993480911 A 131 131 0 0 1 251.8061209508632 282.4409712275287 z"/>
		<path fill="#F68C21" stroke-width="0.1%" stroke="#F68C21" d="M 198.6591972935876 100.23386086079246 A 111 111 0 0 0 41.631143209687394 175.9752028528706 L 3.5555989320099854 167.5340579092846 A 150 150 0 0 1 85.42333547875572 64.61220734752092 L 93.60304631811331 81.76132775016828 A 131 131 0 0 1 207.42662022936915 82.25797993480911 z" />
		<path fill="#F47323" stroke-width="0.1%" stroke="#F47323" d="M 41.631143209687394 175.9752028528706 A 111 111 0 0 0 150 311 L 150 331 A 131 131 0 0 1 48.19387904913681 282.4409712275287 L 33.42810578145436 294.3980586574756 A 150 150 0 0 1 3.5555989320099854 167.5340579092846 z"/>
	</g>
</svg>